<?xml version="1.0" encoding="UTF-8"?>
<svg height="600" width="800" xmlns="http://www.w3.org/2000/svg" xmlns:xlink="http://www.w3.org/1999/xlink">
    <style>
        
    </style>
    <g id="Notes" font-family="'LucidaGrande', 'Lucida Grande', sans-serif" font-size="13">
        <rect fill="white" height="600.0" width="800.0" x="0.0" y="0.0" />
        <g font-size="13">
            <text x="18.0" y="176.0">Small</text>
            <text x="18.0" y="376.0">Medium</text>
            <text x="18.0" y="576.0">Large</text>
        </g>
        <g font-size="9">
            <text x="250.0" y="30.0">Ultralight</text>
            <text x="450.0" y="30.0">Regular</text>
            <text x="650.0" y="30.0">Black</text>
            <text id="template-version" fill="#505050" text-anchor="end" x="785.0" y="575.0">Template v.3.0</text>
            <a href="https://github.com/swhitty/SwiftDraw">
                <text fill="#505050" text-anchor="end" x="785.0" y="590.0">https://github.com/swhitty/SwiftDraw</text>
            </a>
        </g>
    </g>
    <g id="Guides" stroke="rgb(39, 170, 225)" stroke-width="0.5">
        <path id="Capline-S" d="M18,76 l800,0" />
        <path id="H-reference" d="M85,145.8 L87.7,145.8 L113.4,79.3 L114.1,79.3 L114.1,76 L112.1,76 L85,145.8 Z M95.7,121.5 L131,121.5 L130.3,119.3 L96.5,119.3 L95.7,121.5 Z M139.1,145.8 L141.8,145.8 L114.6,76 L113.5,76 L113.5,79.3 L139.1,145.8 Z" stroke="none" />
        <path id="Baseline-S" d="M18,146 l800,0" />
        <path id="left-margin-Ultralight-S" d="M221,56 l0,110" />
        <path id="right-margin-Ultralight-S" d="M309,56 l0,110" />
        <path id="left-margin-Regular-S" d="M421,56 l0,110" />
        <path id="right-margin-Regular-S" d="M509,56 l0,110" />
        <path id="left-margin-Black-S" d="M621,56 l0,110" />
        <path id="right-margin-Black-S" d="M709,56 l0,110" />
        <path id="Capline-M" d="M18,276 l800,0" />
        <path id="Baseline-M" d="M18,346 l800,0" />
        <path id="Capline-L" d="M18,476 l800,0" />
        <path id="Baseline-L" d="M18,546 l800,0" />
    </g>
    <g id="Symbols">
        <g id="Ultralight-S">
            <path class="monochrome-0 multicolor-0:tintColor hierarchical-0:primary" d="M236.4,146 C237.1,146 237.7,145.4 237.7,144.7 L237.7,77.3 C237.7,76.6 237.1,76 236.4,76 C235.5,76 235,76.6 235,77.3 L235,144.7 C235,145.4 235.5,146 236.4,146 Z M250.8,138.4 C251.5,138.4 252.2,137.8 252.2,137.1 L252.2,84.9 C252.2,84.1 251.5,83.6 250.8,83.6 C250,83.6 249.4,84.1 249.4,84.9 L249.4,137.1 C249.4,137.8 250,138.4 250.8,138.4 Z M265.3,130.2 C266,130.2 266.7,129.7 266.7,129 L266.7,93 C266.7,92.3 266,91.7 265.3,91.7 C264.5,91.7 263.9,92.3 263.9,93 L263.9,129 C263.9,129.7 264.5,130.2 265.3,130.2 Z M279.7,122.2 C280.5,122.2 281.2,121.5 281.2,120.8 L281.2,101.1 C281.2,100.4 280.5,99.8 279.7,99.8 C279,99.8 278.3,100.4 278.3,101.1 L278.3,120.8 C278.3,121.5 279,122.2 279.7,122.2 Z M293,112.8 C294.2,112.8 295,112 295,110.9 C295,109.9 294.2,109.1 293,109.1 C292,109.1 291.1,109.9 291.1,110.9 C291.1,112 292,112.8 293,112.8 Z" />
        </g>
        <g id="Regular-S">
            <path class="monochrome-0 multicolor-0:tintColor hierarchical-0:primary" d="M438.2,146 C440.4,146 442,144.2 442,141.9 L442,80.1 C442,77.8 440.4,76 438.2,76 C436,76 434.4,77.8 434.4,80.1 L434.4,141.9 C434.4,144.2 436,146 438.2,146 Z M452,138.8 C454.1,138.8 455.8,137.1 455.8,134.7 L455.8,87.3 C455.8,84.9 454.1,83.2 452,83.2 C449.8,83.2 448.1,84.9 448.1,87.3 L448.1,134.7 C448.1,137.1 449.8,138.8 452,138.8 Z M465.8,130.4 C468,130.4 469.6,128.6 469.6,126.2 L469.6,95.7 C469.6,93.4 468,91.6 465.8,91.6 C463.6,91.6 461.9,93.4 461.9,95.7 L461.9,126.2 C461.9,128.6 463.6,130.4 465.8,130.4 Z M479.6,122 C481.8,122 483.4,120.2 483.4,117.8 L483.4,104.1 C483.4,101.7 481.8,100 479.6,100 C477.4,100 475.8,101.7 475.8,104.1 L475.8,117.8 C475.8,120.2 477.4,122 479.6,122 Z M491.8,114.4 C493.9,114.4 495.6,112.6 495.6,110.4 C495.6,108.2 493.9,106.4 491.8,106.4 C489.8,106.4 488.1,108.2 488.1,110.4 C488.1,112.6 489.8,114.4 491.8,114.4 Z" />
        </g>
        <g id="Black-S">
            <path class="monochrome-0 multicolor-0:tintColor hierarchical-0:primary" d="M638.2,146 C641,146 643,143.8 643,141.1 L643,80.9 C643,78.2 641,76 638.2,76 C635.5,76 633.5,78.2 633.5,80.9 L633.5,141.1 C633.5,143.8 635.5,146 638.2,146 Z M652,140.6 C654.7,140.6 656.8,138.4 656.8,135.6 L656.8,86.4 C656.8,83.6 654.7,81.4 652,81.4 C649.3,81.4 647.3,83.6 647.3,86.4 L647.3,135.6 C647.3,138.4 649.3,140.6 652,140.6 Z M665.8,132.6 C668.5,132.6 670.6,130.4 670.6,127.7 L670.6,94.3 C670.6,91.6 668.5,89.4 665.8,89.4 C663.1,89.4 661.1,91.6 661.1,94.3 L661.1,127.7 C661.1,130.4 663.1,132.6 665.8,132.6 Z M679.6,124.7 C682.3,124.7 684.3,122.5 684.3,119.7 L684.3,102.3 C684.3,99.5 682.3,97.3 679.6,97.3 C676.9,97.3 674.9,99.5 674.9,102.3 L674.9,119.7 C674.9,122.5 676.9,124.7 679.6,124.7 Z M691.8,115.8 C694.4,115.8 696.5,113.6 696.5,111 C696.5,108.4 694.4,106.2 691.8,106.2 C689.3,106.2 687.1,108.4 687.1,111 C687.1,113.6 689.3,115.8 691.8,115.8 Z" />
        </g>
    </g>
</svg>